HIERARCHY
ROOT root
{
	OFFSET	0	13.1	24.9
	CHANNELS 6  Xposition Yposition Zposition Xrotation Yrotation Zrotation
	JOINT spine_1
	{
		OFFSET	0	9.99999	0
		CHANNELS 3  Xrotation Yrotation Zrotation
		JOINT spine_2
		{
			OFFSET	0	112	-10
			CHANNELS 3  Xrotation Yrotation Zrotation
			JOINT spine_3
			{
				OFFSET	0	206.5	19.3
				CHANNELS 3  Xrotation Yrotation Zrotation
				JOINT spine_4
				{
					OFFSET	0	110.4	14.6
					CHANNELS 3  Xrotation Yrotation Zrotation
					JOINT neck_1
					{
						OFFSET	0	71.8	-50.3
						CHANNELS 3  Xrotation Yrotation Zrotation
						JOINT neck_2
						{
							OFFSET	0	86.2	-25.8
							CHANNELS 3  Xrotation Yrotation Zrotation
							JOINT head_ee
							{
								OFFSET	0	179.8	-8.7
								CHANNELS 3  Xrotation Yrotation Zrotation
								End Site
								{
									OFFSET	1	0	0
								}
							}
						}
					}
					JOINT left_clavicle
					{
						OFFSET	-43.2	22.4	-70.8
						CHANNELS 3  Xrotation Yrotation Zrotation
						JOINT left_shoulder
						{
							OFFSET	-93.9	-5.79999	48.7
							CHANNELS 3  Xrotation Yrotation Zrotation
							JOINT left_elbow
							{
								OFFSET	-291.4	-30.8	15.2
								CHANNELS 3  Xrotation Yrotation Zrotation
								JOINT left_lowarm_twist
								{
									OFFSET	-110.7	-3.89999	13.6
									CHANNELS 3  Xrotation Yrotation Zrotation
									JOINT left_hand
									{
										OFFSET	-110.7	-3.89999	13.6
										CHANNELS 3  Xrotation Yrotation Zrotation
										JOINT left_ee
										{
											OFFSET	-80.8	-5.10001	12.1
											CHANNELS 3  Xrotation Yrotation Zrotation
											End Site
											{
												OFFSET	1	0	0
											}
										}
									}
								}
							}
						}
					}
					JOINT right_clavicle
					{
						OFFSET	43.2	22.4	-70.8
						CHANNELS 3  Xrotation Yrotation Zrotation
						JOINT right_shoulder
						{
							OFFSET	93.9	-5.79999	48.7
							CHANNELS 3  Xrotation Yrotation Zrotation
							JOINT right_elbow
							{
								OFFSET	291.4	-30.8	15.2
								CHANNELS 3  Xrotation Yrotation Zrotation
								JOINT right_lowarm_twist
								{
									OFFSET	110.7	-3.89999	13.6
									CHANNELS 3  Xrotation Yrotation Zrotation
									JOINT right_hand
									{
										OFFSET	110.7	-3.89999	13.6
										CHANNELS 3  Xrotation Yrotation Zrotation
										JOINT right_ee
										{
											OFFSET	80.8	-5.10001	12.1
											CHANNELS 3  Xrotation Yrotation Zrotation
											End Site
											{
												OFFSET	1	0	0
											}
										}
									}
								}
							}
						}
					}
				}
			}
		}
	}
	JOINT left_hip
	{
		OFFSET	-82.8	-127.5	0.300001
		CHANNELS 3  Xrotation Yrotation Zrotation
		JOINT left_knee
		{
			OFFSET	-28.2	-396.7	2.2
			CHANNELS 3  Xrotation Yrotation Zrotation
			JOINT left_ankle
			{
				OFFSET	-11.7	-411.3	35.4
				CHANNELS 3  Xrotation Yrotation Zrotation
				JOINT left_toes
				{
					OFFSET	0	-60	-88.6
					CHANNELS 3  Xrotation Yrotation Zrotation
					JOINT left_foot_ee
					{
						OFFSET	-22.5	-16.5	-42.2
						CHANNELS 3  Xrotation Yrotation Zrotation
						End Site
						{
							OFFSET	1	0	0
						}
					}
				}
			}
		}
	}
	JOINT right_hip
	{
		OFFSET	82.8	-127.5	0.300001
		CHANNELS 3  Xrotation Yrotation Zrotation
		JOINT right_knee
		{
			OFFSET	28.2	-396.7	2.2
			CHANNELS 3  Xrotation Yrotation Zrotation
			JOINT right_ankle
			{
				OFFSET	11.7	-411.3	35.4
				CHANNELS 3  Xrotation Yrotation Zrotation
				JOINT right_toes
				{
					OFFSET	0	-60	-88.6
					CHANNELS 3  Xrotation Yrotation Zrotation
					JOINT right_foot_ee
					{
						OFFSET	22.5	-16.5	-42.2
						CHANNELS 3  Xrotation Yrotation Zrotation
						End Site
						{
							OFFSET	1	0	0
						}
					}
				}
			}
		}
	}
}
MOTION
Frames: 15
Frame Time: 0.02
1073.9 730.482 -1018.83 173.393 -42.7453 171.739 -3.74419 0.280309 3.50295 -3.73736 0.056979 3.51368 -3.72442 -0.906289 3.3954 -3.74032 -0.359021 3.49577 4.03309 12.9378 -4.87051 5.07767 26.5595 -4.97578 -0.0 0.0 -0.0 -2.47953 23.7239 -0.6325 -11.7061 -34.5756 70.3125 0.588431 -16.2511 0.0840146 -30.9421 -2.04333 3.3372 2.12469 26.5988 22.9293 -0.0 0.0 -0.0 10.8095 24.4408 -20.8438 7.44169 42.1736 -59.7177 1.02016 26.8095 -0.243132 -4.4548 0.178102 -0.540726 3.20545 -25.3481 -29.5816 0.0 0.0 0.0 13.9359 5.83101 -1.02719 -60.264 -2.22856 8.55447 40.5558 10.0539 -4.92536 -34.0289 0.0 0.0 -0.0 0.0 -0.0 -0.170151 8.67356 -2.49451 3.9155 0.18093 0.573408 19.7768 16.3628 2.94658 -8.32605 0.0 0.0 0.0 0.0 0.0 
1094.7 726.001 -1016.68 173.546 -45.0141 171.515 -3.73617 0.266247 3.2612 -3.73025 0.0583014 3.27152 -3.71872 -0.838332 3.16294 -3.73253 -0.328563 3.25552 4.61241 12.2677 -4.92265 5.6173 25.3723 -5.17034 -0.0 0.0 -0.0 -2.1584 24.082 -0.132479 -12.9873 -34.3768 70.4617 0.589265 -16.2729 0.0842482 -30.7887 -2.02898 3.32374 2.38835 25.9025 24.4068 -0.0 0.0 -0.0 10.5725 23.6069 -20.3898 9.18143 41.866 -58.329 1.16362 29.959 -0.311354 -2.98339 0.114624 -0.363655 3.20837 -24.5052 -29.443 0.0 0.0 0.0 16.3831 4.46056 -1.20717 -58.3363 -2.02304 8.33961 38.9819 6.25508 -4.76956 -34.9507 0.0 0.0 -0.0 0.0 -0.0 -1.18304 7.492 -2.10278 3.93986 0.182178 0.576935 22.2887 13.6156 3.21361 -7.8666 0.0 0.0 0.0 0.0 0.0 
1117.6 723.846 -1011.24 174.037 -47.9167 171.109 -3.56434 0.145533 3.27562 -3.55837 -0.0630844 3.27824 -3.55439 -0.948097 3.13892 -3.56787 -0.440741 3.24912 3.42694 11.8768 -4.78304 4.29157 24.718 -4.76392 -0.0 0.0 -0.0 -1.87487 24.3553 0.295841 -14.8932 -34.0324 69.7358 0.644175 -17.6983 0.10029 -30.8914 -2.03858 3.33275 2.33224 23.8039 23.563 -0.0 0.0 -0.0 10.6363 24.0027 -20.496 8.58686 39.1771 -55.5494 1.46195 35.91 -0.47377 -2.51622 0.0954256 -0.307106 3.17475 -22.6405 -28.8377 0.0 0.0 0.0 18.0709 8.85623 -3.56115 -51.1107 -1.32027 7.47663 29.9203 -0.195729 -3.90328 -35.6618 0.0 0.0 -0.0 0.0 -0.0 -2.02724 9.2449 1.09201 1.78415 0.0775715 0.262777 27.0159 14.4911 3.81126 -6.33594 0.0 0.0 0.0 0.0 0.0 
1142.94 727.321 -1010.99 173.625 -50.0997 170.422 -3.62281 0.0943168 2.91828 -3.61808 -0.0914918 2.91837 -3.61676 -0.880925 2.78386 -3.62732 -0.430406 2.88794 3.04399 11.6458 -4.36356 3.8162 24.0051 -4.20992 -0.0 0.0 -0.0 -1.07544 24.5369 1.39446 -16.0102 -33.8212 69.634 0.660109 -18.1078 0.105189 -31.2106 -2.06853 3.36065 2.14764 22.7161 22.1156 -0.0 0.0 -0.0 10.5174 23.5031 -20.2754 5.97349 36.51 -52.228 1.73342 40.6486 -0.642089 -1.97501 0.0737617 -0.241404 2.98603 -18.356 -26.5278 0.0 0.0 0.0 21.1743 14.513 -5.02649 -44.6395 -0.787995 6.6352 20.2222 -4.14652 -2.81202 -36.1182 0.0 0.0 -0.0 0.0 -0.0 -3.28871 11.0384 3.03848 -0.50218 -0.0203518 -0.0743776 30.741 12.8985 4.19271 -5.28352 0.0 0.0 0.0 0.0 0.0 
1165.1 726.06 -1003.6 173.429 -52.3636 170.076 -3.55668 0.361997 2.38037 -3.55355 0.209839 2.39857 -3.54012 -0.446112 2.36606 -3.54793 -0.0669514 2.40679 2.79875 11.3437 -4.07526 3.49844 23.2624 -3.84391 -0.0 0.0 -0.0 -0.0611822 24.6687 2.76385 -17.9366 -33.1257 67.8078 0.642522 -17.6557 0.0997883 -32.3988 -2.18141 3.46304 1.98685 19.769 20.2776 -0.0 0.0 -0.0 10.7651 21.9945 -20.968 4.99158 32.3842 -49.5851 1.97544 44.3747 -0.805721 -0.741463 0.0267144 -0.0909208 2.69057 -13.2255 -23.0162 0.0 0.0 0.0 21.761 15.4653 -4.49443 -41.5421 -0.56778 6.21279 13.2741 -5.2952 -1.91304 -36.476 0.0 0.0 -0.0 0.0 -0.0 -5.12382 14.3215 4.13092 -2.61589 -0.0988328 -0.389254 35.5046 11.7005 4.65409 -4.29308 0.0 0.0 0.0 0.0 0.0 
1182.92 724.577 -1003.26 173.971 -54.7996 170.427 -3.27436 0.263178 2.05412 -3.27202 0.131964 2.06669 -3.26407 -0.42163 2.02754 -3.2698 -0.0961976 2.06867 4.636 9.94701 -6.98297 5.61157 23.1421 -7.62668 -0.0 0.0 -0.0 2.90758 24.0591 6.71857 -22.069 -30.7982 63.6636 0.48145 -13.4144 0.0566192 -29.3744 -1.89838 3.19792 2.58939 15.6252 23.0526 -0.0 0.0 -0.0 11.9763 22.4999 -23.6802 8.37719 22.961 -48.4092 2.10925 46.2511 -0.900866 5.0261 -0.149775 0.624327 2.44391 -1.39174 -17.1115 0.0 0.0 0.0 24.517 16.2903 -2.51662 -30.1077 0.0399273 4.56745 4.87043 0.991734 -0.709242 -40.1427 0.0 0.0 -0.0 0.0 -0.0 -5.87487 22.5796 4.40314 -5.99885 -0.200098 -0.898484 36.8747 6.00534 4.6675 -2.96239 0.0 0.0 0.0 0.0 0.0 
1196.43 725.703 -999.502 175.656 -56.9819 172.057 -3.26258 0.272107 2.09851 -3.26014 0.138052 2.11157 -3.25173 -0.427235 2.07251 -3.25771 -0.0946352 2.11396 1.5588 9.71445 -4.0085 2.05021 20.4634 -3.62908 -0.0 0.0 -0.0 4.46461 23.8347 8.85612 -22.697 -29.4645 61.6423 0.415403 -11.6281 0.0422984 -34.6743 -2.4034 3.65252 2.78772 19.722 25.5303 -0.0 0.0 -0.0 11.7513 22.637 -23.153 9.90997 20.0331 -48.3921 2.29865 48.7033 -1.04048 5.51847 -0.161487 0.686132 1.8201 5.67345 -9.91876 0.0 0.0 0.0 26.4078 15.8482 -0.456537 -24.5645 0.213604 3.73479 -1.26876 10.2532 0.186308 -37.8487 0.0 0.0 -0.0 0.0 -0.0 -5.74879 27.5705 4.16048 -7.73791 -0.240402 -1.1623 38.3315 2.264 4.75004 -0.972235 0.0 0.0 0.0 0.0 0.0 
1208.81 720.917 -990.722 175.92 -57.9241 172.673 -3.25034 0.158618 1.86026 -3.24842 0.0399441 1.86659 -3.24465 -0.456602 1.81034 -3.24919 -0.165015 1.85971 1.52056 9.66687 -4.26379 2.02616 20.5939 -3.91022 -0.0 0.0 -0.0 3.90371 23.0863 8.08527 -22.733 -29.3861 62.1303 0.497862 -13.8543 0.0604879 -27.1206 -1.69681 2.99091 2.5982 10.6198 21.5373 -0.0 0.0 -0.0 12.0571 22.6044 -23.856 8.98491 19.2536 -46.3388 2.64055 52.5932 -1.30502 4.9268 -0.147348 0.611874 2.54349 10.3695 -12.8603 0.0 0.0 0.0 29.3432 24.9153 -3.25355 -21.3064 0.277825 3.23902 -15.1517 -1.95503 2.31157 -39.7884 0.0 0.0 -0.0 0.0 -0.0 -7.15744 28.6145 3.62263 -6.72012 -0.217786 -1.00776 38.2334 5.67041 4.78651 1.39577 -0.0 -0.0 0.0 0.0 0.0 
1224.91 717.16 -986.905 178.117 -59.5451 174.778 -3.01311 0.118455 1.60844 -3.01168 0.0158787 1.61272 -3.0095 -0.406038 1.56086 -3.01287 -0.154467 1.60538 1.76745 10.0999 -3.84802 2.28569 20.9919 -3.46152 -0.0 0.0 -0.0 4.62789 22.904 9.10643 -23.1084 -28.7511 61.6651 0.442963 -12.3765 0.0480295 -25.7747 -1.5804 2.86361 2.84775 9.05372 22.7556 -0.0 0.0 -0.0 11.8728 23.1053 -23.3881 8.55894 19.0572 -44.7958 2.73125 53.522 -1.37752 4.8125 -0.144528 0.597546 2.56873 13.6569 -11.5394 0.0 0.0 0.0 31.3357 25.955 -1.90959 -13.8301 0.318108 2.09342 -18.4779 -2.44648 2.82971 -39.8417 0.0 0.0 -0.0 0.0 -0.0 -7.86737 31.3374 3.87578 -6.25803 -0.206612 -0.937724 38.9429 4.56847 4.83316 3.6002 -0.0 -0.0 0.0 0.0 0.0 
1249.34 718.033 -986.344 -177.76 -61.0153 177.806 -2.71469 0.0653375 1.63393 -2.71321 -0.0387523 1.63478 -2.71273 -0.456428 1.57027 -2.71611 -0.202741 1.62263 1.61233 9.18696 -3.88149 2.05827 19.4241 -3.53248 -0.0 0.0 -0.0 5.42061 22.4689 10.2512 -22.6076 -28.2322 61.9617 0.38959 -10.9235 0.037251 -25.5079 -1.55768 2.83804 3.34969 9.06428 26.3536 -0.0 0.0 -0.0 11.8287 23.8655 -23.2149 8.00205 17.3268 -43.3398 2.71294 53.3376 -1.3628 5.96008 -0.17154 0.741648 2.81128 15.8118 -12.1897 0.0 0.0 0.0 29.3992 23.0319 2.98989 -3.62219 0.132097 0.540106 -15.9722 -0.265657 2.42585 -40.1864 0.0 0.0 -0.0 0.0 -0.0 -7.44771 37.1025 4.9111 -9.95075 -0.280077 -1.49953 38.2662 -0.586994 4.71955 4.61878 -0.0 -0.0 0.0 0.0 0.0 
1262.8 714.163 -985.295 -177.117 -60.1324 178.784 -2.60964 0.149168 1.60445 -2.60821 0.0467834 1.61069 -2.60527 -0.364599 1.56959 -2.60869 -0.112169 1.60746 1.94501 8.96579 -4.45814 2.43174 19.4905 -4.24716 -0.0 0.0 -0.0 6.22055 22.2016 11.4234 -22.6545 -28.7177 61.539 0.321526 -9.04994 0.0254457 -25.8592 -1.58762 2.87167 3.73118 9.84689 29.4254 -0.0 0.0 -0.0 11.6911 24.8164 -22.8048 8.76221 16.2104 -43.4464 2.61273 52.3002 -1.28296 6.95222 -0.192562 0.866641 2.48845 17.1671 -9.35517 0.0 0.0 0.0 31.1052 25.3637 2.27876 1.62706 -0.0704124 -0.239736 -14.1044 -7.92419 2.20505 -38.1109 0.0 0.0 -0.0 0.0 -0.0 -7.85473 39.2242 5.19618 -11.2363 -0.297133 -1.69604 39.5689 1.06011 4.84733 4.8998 -0.0 -0.0 0.0 0.0 0.0 
1286.16 713.286 -989.681 -175.395 -58.7634 -179.805 -2.49276 0.162863 1.35983 -2.49174 0.0760114 1.36744 -2.48874 -0.271677 1.34234 -2.49125 -0.0562912 1.36839 2.51986 9.19156 -3.78781 2.99521 19.2828 -3.57589 -0.0 0.0 -0.0 6.49407 22.2662 11.8174 -21.1098 -27.9929 63.0883 0.355808 -9.99632 0.0311178 -22.8705 -1.33963 2.57986 4.25433 9.28643 33.252 -0.0 0.0 -0.0 11.3199 24.9504 -21.947 8.11458 15.4826 -43.3543 2.73633 53.5727 -1.3816 7.68592 -0.206714 0.959296 2.64053 21.7451 -8.16973 0.0 0.0 0.0 31.4306 25.046 3.91043 6.44358 -0.318442 -0.936673 -15.8665 -2.93346 2.43017 -38.1934 0.0 0.0 -0.0 0.0 -0.0 -10.9765 43.3536 8.20338 -9.32088 -0.270111 -1.40339 39.6858 2.47535 4.87161 6.83602 -0.0 -0.0 0.0 0.0 0.0 
1309.31 711.089 -983.681 -173.624 -57.9102 -178.095 -2.27487 0.176398 1.54163 -2.27355 0.0779553 1.54972 -2.27001 -0.310029 1.5204 -2.27323 -0.0660494 1.55028 2.39845 8.67589 -4.55605 2.88957 19.0337 -4.45105 -0.0 0.0 -0.0 7.13771 22.6393 12.7241 -21.5214 -27.906 62.2698 0.343596 -9.6598 0.0290332 -21.6475 -1.24263 2.45683 4.23231 9.7677 33.235 -0.0 0.0 -0.0 10.6487 25.8338 -20.337 8.17525 14.6763 -45.5625 2.70448 53.252 -1.35603 7.54747 -0.204134 0.941798 2.94174 23.383 -9.34329 0.0 0.0 0.0 31.1735 24.2857 3.9151 8.32469 -0.431122 -1.20293 -12.2625 -4.55768 1.88357 -39.0185 0.0 0.0 -0.0 0.0 -0.0 -12.0247 46.1532 8.64156 -10.3196 -0.285422 -1.55587 38.7295 0.538748 4.76919 7.52546 -0.0 -0.0 0.0 0.0 0.0 
1331.87 706.922 -981.624 -173.096 -57.0731 -178.162 -2.1603 0.137523 1.65992 -2.15877 0.0316337 1.66531 -2.1563 -0.380461 1.62158 -2.15995 -0.119624 1.66131 3.54391 7.83006 -4.86053 4.03745 17.747 -5.02553 -0.0 0.0 -0.0 7.23074 21.8443 12.9382 -20.3549 -27.8976 63.0094 0.296347 -8.35166 0.0216367 -21.5508 -1.23507 2.44702 4.46477 10.2483 35.2307 -0.0 0.0 -0.0 10.3979 27.2802 -19.6127 7.72639 14.5232 -46.437 2.55638 51.6945 -1.23856 7.45422 -0.202373 0.930016 2.83319 24.2594 -8.18662 0.0 0.0 0.0 31.2342 24.2535 4.157 6.16251 -0.302361 -0.896583 -8.88621 -5.57081 1.3647 -37.4052 0.0 0.0 -0.0 0.0 -0.0 -12.575 49.2698 9.27025 -13.4923 -0.316395 -2.04162 37.4775 0.911071 4.65959 8.1305 -0.0 -0.0 0.0 0.0 0.0 
1357.19 701.713 -979.566 -174.013 -54.624 -178.938 -2.15263 0.667655 1.67031 -2.15125 0.560032 1.7094 -2.13238 0.121688 1.79465 -2.13665 0.403549 1.75293 5.89606 6.68336 -5.65805 6.4441 16.3473 -6.351 -0.0 0.0 -0.0 8.1339 24.0804 14.0007 -21.5433 -29.377 60.7422 0.349306 -9.81721 0.029999 -22.7688 -1.33147 2.56972 4.25649 12.1208 34.1492 -0.0 0.0 -0.0 9.91163 28.3066 -18.4057 7.82288 14.4247 -47.6498 2.39657 49.8842 -1.11472 7.24731 -0.198397 0.903885 2.46435 17.9067 -8.84324 0.0 0.0 0.0 32.4801 24.5564 3.25819 1.99617 -0.0873331 -0.293843 -7.41716 0.25949 1.11348 -35.7801 0.0 0.0 -0.0 0.0 -0.0 -16.0325 51.3799 11.5234 -13.383 -0.315776 -2.02487 39.6083 0.258773 4.84407 8.52687 -0.0 -0.0 0.0 0.0 0.0 
